<svg width="512" height="512" viewBox="0 0 512 512" fill="none" xmlns="http://www.w3.org/2000/svg">
<g clip-path="url(#clip0_112_50)">
<rect y="12" width="500" height="500" rx="250" fill="#F6F6F6" stroke="#FA3366" stroke-width="3"/>
<path fill-rule="evenodd" clip-rule="evenodd" d="M250.007 390.481C246.706 390.456 243.313 390.431 239.814 390.431C156.029 390.431 106.25 338.681 106.25 260.809C106.25 186.881 156.521 133.652 235.379 133.652C316.7 133.652 367.464 183.924 358.1 283.974H168.35C172.293 314.038 198.414 335.724 240.8 335.724C244.42 335.724 248.297 335.821 252.313 335.922C272.898 336.439 297.095 337.046 308.643 325.086L333.146 368.184C304.846 390.892 281.587 390.717 250.007 390.481ZM169.336 234.195H300.436C296.493 202.652 271.85 186.881 237.35 186.881C204.821 186.881 178.207 202.652 169.336 234.195Z" fill="#2A3045"/>
<rect x="327.515" y="301.881" width="60.1012" height="60.1012" rx="12" fill="#FA3366"/>
</g>
<defs>
<clipPath id="clip0_112_50">
<rect width="512" height="512" fill="white"/>
</clipPath>
</defs>
</svg>
